# xmcd
#
# Track frame offsets:
#	150
#	99097
#	102862
#	133337
#	147772
#	164602
#	173747
#	184850
#
# Disc length: 2752 seconds
#
# Revision: 0
# Processed by: cddbd v1.5.1PL2 Copyright (c) Steve Scherf et al.
# Submitted via: dBpowerAMP V4.0
#
DISCID=680abe08
DTITLE=Eugene Chadbourne - LSD C and W The History of the Chadbournes In America CD 1
DYEAR=1900
DGENRE=Alternative
TTITLE0=Beatles medley
TTITLE1=In a sentimental mood part 1
TTITLE2=In a sentimental mood part 2
TTITLE3=Winchester VA
TTITLE4=Tennessee flattop box
TTITLE5=Dr Chadbourne's ordeal in Nashville
TTITLE6=Burma shave
TTITLE7=Dixie Fried
EXTD=
EXTT0=
EXTT1=
EXTT2=
EXTT3=
EXTT4=
EXTT5=
EXTT6=
EXTT7=
PLAYORDER=
